<?xml version="1.0" encoding="utf-8"?>
<!-- Generator: Adobe Illustrator 16.0.0, SVG Export Plug-In . SVG Version: 6.00 Build 0)  -->
<!DOCTYPE svg PUBLIC "-//W3C//DTD SVG 1.1//EN" "http://www.w3.org/Graphics/SVG/1.1/DTD/svg11.dtd">
<svg version="1.1" xmlns="http://www.w3.org/2000/svg" xmlns:xlink="http://www.w3.org/1999/xlink" x="0px" y="0px" width="768px"
	 height="768px" viewBox="0 0 768 768" style="enable-background:new 0 0 768 768;" xml:space="preserve">
<g id="Layer_2">
	<rect x="1" style="fill-rule:evenodd;clip-rule:evenodd;fill:#000F2C;" width="768" height="769"/>
</g>
<g id="Layer_1">
	<g>
		<path style="fill-rule:evenodd;clip-rule:evenodd;fill:#182D50;" d="M376.343,767.029c-1.503-1.649-2.94-3.365-4.516-4.941
			C250.714,640.956,129.592,519.834,8.463,398.719c-3.042-3.04-6.643-5.702-5.726-10.86c0.188-1.059-0.76-1.674-1.777-1.939
			c0-3.84,0-7.68,0-11.52c1.323-3.146,3.487-5.628,5.886-8.027C126.715,246.557,246.557,126.715,366.373,6.847
			c2.399-2.4,4.881-4.564,8.028-5.887c6.08,0,12.16,0,18.24,0c3.146,1.323,5.63,3.488,8.03,5.89
			C521.444,127.675,642.244,248.475,763.07,369.249c2.401,2.4,4.566,4.883,5.89,8.031c0,7.04,0,14.08,0,21.12
			c-1.322,3.146-3.487,5.627-5.887,8.024C644.463,524.98,525.881,643.565,407.327,762.178c-1.188,1.188-2.945,1.991-3.169,3.915
			c7.291,1.088,14.557,0.166,21.795,0.466c4.57,0.189,9.162-0.391,13.729,0.36c0.524,0.266,0.924,0.649,1.212,1.163
			c0.09,0.683-0.194,1.113-0.854,1.299c-19.694,0.131-39.383,0.021-59.067,0.057c-1.138,0.083-2.205-0.251-3.266-0.599
			C376.904,768.502,376.434,767.909,376.343,767.029z"/>
		<path style="fill-rule:evenodd;clip-rule:evenodd;fill:#182D50;" d="M768.96,452.159c-1.315,1.153-2.702,2.234-3.937,3.469
			C662.521,558.109,560.027,660.603,457.544,763.105c-1.237,1.236-2.338,2.609-3.502,3.92c5.641,1.114,11.339,0.266,17.007,0.486
			c7.441,0.289,14.901-0.455,22.336,0.381l0.055,0.122c0.309,0.698,0.096,1.152-0.642,1.359c-16.34,0.132-32.679,0.026-49.016,0.042
			c-1.069,0.002-2.248,0.342-3.142-0.623c0-0.258,0.002-0.516,0.004-0.772c1.154-1.314,2.238-2.698,3.473-3.933
			c106.962-106.983,213.935-213.956,320.918-320.919c1.236-1.236,2.613-2.33,3.925-3.489C768.96,443.839,768.96,448,768.96,452.159z
			"/>
		<path style="fill-rule:evenodd;clip-rule:evenodd;fill:#182D50;" d="M0.96,319.679c1.314-1.147,2.702-2.221,3.933-3.452
			C108.683,212.46,212.461,108.683,316.228,4.893c1.23-1.231,2.305-2.619,3.452-3.934c4.16,0,8.32,0,12.48,0
			c-1.151,1.312-2.234,2.693-3.465,3.925C220.77,112.831,112.833,220.767,4.887,328.692c-1.232,1.232-2.615,2.315-3.927,3.467
			C0.96,327.999,0.96,323.839,0.96,319.679z"/>
		<path style="fill-rule:evenodd;clip-rule:evenodd;fill:#182D50;" d="M446.4,0.959c1.27,1.428,2.47,2.925,3.819,4.274
			c104.812,104.833,209.633,209.654,314.466,314.464c1.35,1.349,2.847,2.551,4.274,3.821c0,3.84,0,7.68,0,11.52
			c-0.871-0.694-1.815-1.313-2.601-2.094c-14.175-14.085-28.768-27.774-42.714-42.058
			c-58.556-59.974-118.46-118.598-177.488-178.098c-18.589-18.739-36.965-37.712-56.084-55.899
			c-17.613-16.755-33.727-34.967-51.399-51.64c-1.383-1.305-2.534-2.854-3.794-4.29C438.721,0.959,442.561,0.959,446.4,0.959z"/>
		<path style="fill-rule:evenodd;clip-rule:evenodd;fill:#182D50;" d="M0.96,265.919c1.314-1.152,2.698-2.234,3.932-3.467
			C90.756,176.61,176.61,90.756,262.453,4.892c1.233-1.233,2.315-2.618,3.467-3.932c4.16,0,8.32,0,12.48,0
			c-1.157,1.311-2.248,2.688-3.482,3.922C184.917,94.904,94.905,184.916,4.883,274.917c-1.234,1.234-2.612,2.325-3.922,3.482
			C0.96,274.239,0.96,270.08,0.96,265.919z"/>
		<path style="fill-rule:evenodd;clip-rule:evenodd;fill:#182D50;" d="M500.16,0.959c1.161,1.31,2.258,2.686,3.493,3.921
			c87.118,87.139,174.246,174.267,261.385,261.385c1.237,1.236,2.611,2.332,3.922,3.493c0,3.84,0,7.68,0,11.52
			c-1.431-1.265-2.933-2.457-4.28-3.804C673.924,186.74,583.179,95.995,492.445,5.237c-1.347-1.347-2.54-2.849-3.805-4.278
			C492.48,0.959,496.32,0.959,500.16,0.959z"/>
		<path style="fill-rule:evenodd;clip-rule:evenodd;fill:#182D50;" d="M493.44,768.748c0-0.244,0-0.488-0.001-0.733
			c2.507-0.282,3.722-2.363,5.265-3.905c88.554-88.514,177.084-177.051,265.63-265.572c1.461-1.459,3.081-2.762,4.626-4.138
			c0,3.84,0,7.68,0,11.52c-1.313,1.159-2.691,2.251-3.928,3.487c-84.578,84.558-169.146,169.124-253.703,253.703
			c-1.235,1.236-2.326,2.617-3.485,3.931c6.283,1.061,12.615,0.231,18.92,0.473c7.108,0.271,14.237-0.491,21.335,0.423
			c0.339,0.017,0.679,0.033,1.019,0.051c0.311,0.7,0.1,1.161-0.634,1.385c-17.31,0.152-34.621,0.029-51.931,0.049
			C495.49,769.422,494.297,769.793,493.44,768.748z"/>
		<path style="fill-rule:evenodd;clip-rule:evenodd;fill:#182D50;" d="M554.88,0.959c1.15,1.319,2.228,2.713,3.463,3.948
			c68.879,68.901,137.769,137.79,206.671,206.667c1.235,1.235,2.627,2.313,3.946,3.465c0,3.84,0,7.68,0,11.52
			c-1.978-0.121-3.045-1.629-4.271-2.855C691.407,150.436,618.132,77.16,544.867,3.875c-0.896-0.897-1.647-1.94-2.467-2.915
			C546.56,0.959,550.721,0.959,554.88,0.959z"/>
		<path style="fill-rule:evenodd;clip-rule:evenodd;fill:#182D50;" d="M549.12,768.792c0-0.269-0.002-0.537-0.003-0.806
			c1.16-1.314,2.252-2.695,3.487-3.933c70.796-70.815,141.601-141.621,212.417-212.415c1.236-1.236,2.622-2.322,3.938-3.479
			c0,4.159,0,8.32,0,12.479c-1.434,1.259-2.941,2.44-4.289,3.785c-22.022,21.99-43.679,44.362-66.146,65.889
			c-16.721,16.02-31.929,33.528-49.021,49.126c-16.53,15.083-31.198,31.974-47.261,47.507
			c-13.521,13.074-26.534,26.674-39.772,40.041c-0.248,1.074-0.989,1.628-2.001,1.899c-0.994,0.117-1.918,0.6-2.944,0.55
			C554.729,769.137,551.835,770.135,549.12,768.792z"/>
		<path style="fill-rule:evenodd;clip-rule:evenodd;fill:#182D50;" d="M0.96,212.159c1.313-1.16,2.691-2.252,3.927-3.488
			C72.827,140.754,140.755,72.825,208.672,4.887c1.236-1.236,2.329-2.615,3.488-3.927c3.84,0,7.68,0,11.52,0
			c-1.149,1.319-2.223,2.712-3.457,3.946C148.462,76.689,76.69,148.461,4.905,220.221c-1.234,1.234-2.626,2.309-3.945,3.458
			C0.96,219.839,0.96,216,0.96,212.159z"/>
		<path style="fill-rule:evenodd;clip-rule:evenodd;fill:#182D50;" d="M558.72,768.776c0.75-0.313,1.5-0.626,2.251-0.939
			c13.627-0.457,27.253-0.639,40.876,0.086c1.885-0.719,2.994-2.365,4.335-3.706c52.846-52.815,105.672-105.649,158.513-158.468
			c1.35-1.35,2.841-2.557,4.266-3.83c0,4.16,0,8.32,0,12.48c-1.089,0.927-2.251,1.782-3.259,2.791
			c-48.877,48.853-97.742,97.719-146.598,146.595c-1.01,1.011-1.885,2.157-2.822,3.24c5.646,1.102,11.346,0.265,17.017,0.484
			c7.438,0.288,14.896-0.461,22.327,0.383l0.054,0.124c0.304,0.715,0.078,1.168-0.674,1.36c-31.047,0.133-62.094,0.023-93.142,0.042
			C560.793,769.42,559.606,769.768,558.72,768.776z"/>
		<path style="fill-rule:evenodd;clip-rule:evenodd;fill:#182D50;" d="M608.64,0.959c1.042,1.202,2.014,2.475,3.136,3.597
			c51.185,51.208,102.38,102.404,153.588,153.588c1.123,1.122,2.395,2.093,3.597,3.135c0,3.84,0,7.68,0,11.52
			c-2.142-0.202-3.265-1.89-4.596-3.22C709.678,114.915,655.002,60.239,600.339,5.553c-1.33-1.33-3.029-2.445-3.219-4.593
			C600.96,0.959,604.8,0.959,608.64,0.959z"/>
		<path style="fill-rule:evenodd;clip-rule:evenodd;fill:#182D50;" d="M0.96,157.439c1.546-1.372,3.168-2.669,4.627-4.127
			c38.093-38.063,76.168-76.143,114.247-114.22c11.391-11.39,22.789-22.772,34.16-34.181c1.231-1.235,2.302-2.63,3.446-3.951
			c4.16,0,8.32,0,12.48,0c-1.043,1.203-2.017,2.476-3.14,3.6C112.718,58.644,58.645,112.717,4.56,166.78
			c-1.124,1.123-2.396,2.096-3.6,3.14C0.96,165.759,0.96,161.6,0.96,157.439z"/>
		<path style="fill-rule:evenodd;clip-rule:evenodd;fill:#182D50;" d="M0.96,103.68c0.977-0.813,2.024-1.556,2.92-2.45
			c32.462-32.438,64.913-64.888,97.351-97.351c0.894-0.895,1.636-1.943,2.45-2.919c4.16,0,8.32,0,12.48,0
			c-0.82,0.971-1.575,2.009-2.471,2.905C77.092,40.483,40.484,77.091,3.865,113.688c-0.896,0.896-1.934,1.651-2.905,2.471
			C0.96,112,0.96,107.84,0.96,103.68z"/>
		<path style="fill-rule:evenodd;clip-rule:evenodd;fill:#182D50;" d="M662.4,0.959c0.819,0.971,1.573,2.009,2.468,2.904
			c33.719,33.741,67.448,67.47,101.188,101.188c0.896,0.895,1.932,1.649,2.903,2.468c0,3.84,0,7.68,0,11.52
			c-1.091-0.923-2.256-1.773-3.263-2.78C728.338,78.926,690.992,41.579,653.659,4.22c-1.007-1.007-1.856-2.17-2.779-3.261
			C654.72,0.959,658.561,0.959,662.4,0.959z"/>
		<path style="fill-rule:evenodd;clip-rule:evenodd;fill:#182D50;" d="M655.68,768.748c0-0.244,0-0.487-0.001-0.732
			c2.485-0.313,3.721-2.364,5.267-3.907c34.477-34.435,68.923-68.896,103.392-103.338c1.46-1.459,3.078-2.758,4.623-4.132
			c0,3.841,0,7.681,0,11.521c-0.973,0.818-2.014,1.569-2.91,2.466c-31.179,31.156-62.349,62.324-93.505,93.505
			c-0.896,0.896-1.649,1.935-2.469,2.907c6.289,1.065,12.626,0.235,18.937,0.475c7.115,0.269,14.25-0.479,21.354,0.412l0.019,0.129
			c0.3,0.712,0.071,1.155-0.683,1.328c-16.973,0.132-33.943,0.027-50.916,0.041C657.728,769.422,656.535,769.794,655.68,768.748z"/>
		<path style="fill-rule:evenodd;clip-rule:evenodd;fill:#F5F5F6;" d="M655.68,768.748c18.24,0.012,36.48,0.023,54.72,0.035
			c3.202-1.781,6.728-2.485,10.209-1.705c6.19,1.388,12.411,0.775,18.621,0.905c8.15,0.169,16.306-0.195,24.454,0.183
			c1.742,0.373,3.748-1.003,5.276,0.793c-0.209,0.295,0.485,1.001-0.479,0.971c-1.279-0.042-2.561-0.011-3.841-0.011
			c-253.12,0-506.239,0.002-759.359-0.059c-1.405-0.001-3.255,1.106-4.32-0.901c3.707-2.869,7.772-1.02,11.707-0.891
			c9.373-0.156,18.746,0.005,28.118-0.082c4.899-0.045,9.79,0.277,14.671-0.904c3.604-0.873,7.247,0.106,10.757,1.219
			c10.04-0.676,20.092-0.121,30.138-0.302c4.292-0.077,8.57,0.182,12.84-0.871c3.642-0.897,7.275,0.094,10.808,1.163
			c8.77-0.656,17.552-0.194,26.327-0.276c21.132-0.196,42.264,0.042,63.396-0.005c2.404-0.005,4.793,0.036,7.027-1.053
			c14.365,1.465,28.782,0.946,43.185,1.066c5.416,0.046,10.788-0.427,16.168-0.899c2.03-0.421,3.695,0.745,5.509,1.263
			c11.297-0.869,22.613-0.169,33.918-0.378c3.495-0.065,7.145-1.088,10.378-0.763c17.743,1.787,35.569-0.489,53.275,1.506
			c20.486,0.014,40.972,0.027,61.458,0.041c17.601-0.015,35.2-0.03,52.8-0.045c18.561,0.015,37.12,0.029,55.68,0.044
			c3.2-0.006,6.4-0.011,9.6-0.016C591.04,768.767,623.36,768.758,655.68,768.748z"/>
		<path style="fill-rule:evenodd;clip-rule:evenodd;fill:#182D50;" d="M717.12,0.959c4.599,5.768,10.129,10.641,15.347,15.801
			c12.157,12.02,23.818,24.543,36.493,36.039c0,3.84,0,7.68,0,11.52c-1.582-0.085-2.575-1.146-3.596-2.167
			C745.604,42.388,725.84,22.626,706.09,2.851c-0.557-0.558-0.97-1.258-1.45-1.892C708.8,0.959,712.96,0.959,717.12,0.959z"/>
		<path style="fill-rule:evenodd;clip-rule:evenodd;fill:#182D50;" d="M764.162,768.764c-17.922,0.006-35.842,0.013-53.763,0.02
			c-0.001-0.244-0.006-0.488-0.014-0.731c11-10.853,21.991-21.715,33.003-32.556c8.511-8.379,17.047-16.732,25.571-25.097
			c0,4.159,0,8.32,0,12.479c-7.901,6.695-14.797,14.423-22.151,21.677c-7.472,7.371-14.739,14.946-22.097,22.434
			c4.688,1.17,9.453,0.329,14.179,0.507c8.405,0.313,16.832-0.452,25.23,0.422l0.031,0.108c0.35,0.159,0.467,0.321,0.354,0.487
			S764.279,768.764,764.162,768.764z"/>
		<path style="fill-rule:evenodd;clip-rule:evenodd;fill:#182D50;" d="M0.96,49.919c10.32-10.167,20.683-20.293,30.945-30.52
			c6.087-6.065,12.016-12.288,18.015-18.44c3.84,0,7.68,0,11.52,0c-1.934,2.105-3.795,4.284-5.813,6.306
			C38.851,24.083,22.051,40.876,5.237,57.657c-1.345,1.342-2.848,2.525-4.277,3.783C0.96,57.6,0.96,53.759,0.96,49.919z"/>
		<path style="fill-rule:evenodd;clip-rule:evenodd;fill:#172C4E;" d="M768.96,10.56c-4.643-1.965-7.312-6.102-10.56-9.6
			c0.319,0,0.64,0,0.96,0c3.199,0,7.648-1.249,9.248,0.351C770.209,2.911,768.96,7.359,768.96,10.56z"/>
		<path style="fill-rule:evenodd;clip-rule:evenodd;fill:#182D4F;" d="M12.479,768.743c-3.839,0.071-7.68,0.144-11.519,0.216
			c0-0.319,0-0.641,0-0.96c3.504-1.246,0.909-4.604,2.495-6.827c3.386,1.367,4.887,5.177,8.13,6.759
			c0.29-0.291,0.617-0.36,0.988-0.172C12.788,768.109,12.769,768.439,12.479,768.743z"/>
		<path style="fill-rule:evenodd;clip-rule:evenodd;fill:#172C4F;" d="M7.681,0.959C5.823,3.582,3.583,5.822,0.96,7.68
			C0.96,0.959,0.96,0.959,7.681,0.959z"/>
		<path style="fill-rule:evenodd;clip-rule:evenodd;fill:#162B4D;" d="M764.162,768.764c-0.001-0.246-0.004-0.492-0.01-0.737
			c1.603-1.289,3.205-2.578,4.808-3.867c0,1.601,0,3.199,0,4.8C767.36,768.894,765.762,768.829,764.162,768.764z"/>
		<path style="fill-rule:evenodd;clip-rule:evenodd;fill:#182D50;" d="M379.183,768.752c-32.634,0.014-65.268,0.028-97.902,0.042
			c-0.213-0.175-0.284-0.351-0.214-0.526s0.141-0.264,0.212-0.264c0.342-0.024,0.685-0.048,1.026-0.072
			c11.534-0.931,23.089-0.133,34.63-0.434c1.866-0.049,3.799,0.491,5.599-0.451c-1.497-1.655-2.924-3.379-4.5-4.955
			C214.875,658.91,111.74,555.706,8.42,452.686c-4.767-4.753-6.587-9.418-5.162-15.939c2.267,0.371,3.311,2.332,4.686,3.707
			c107.832,107.784,215.637,215.596,323.458,323.39c1.458,1.459,3.101,2.733,4.658,4.094c13.659-0.725,27.319-0.603,40.979-0.064
			C377.754,768.166,378.468,768.459,379.183,768.752z"/>
		<path style="fill-rule:evenodd;clip-rule:evenodd;fill:#182D50;" d="M281.279,768.004c0.001,0.264,0.001,0.526,0.002,0.79
			c-1.608-0.003-3.216-0.006-4.823-0.009c-1.497-0.76-3.34-1.086-3.851-3.08c0.152,1.276-0.052,2.355-1.543,2.679
			c-0.813,0.176-1.521-0.217-2.256-0.46c-0.398-0.213-0.694-0.523-0.902-0.922c-1.397-1.532-2.735-3.123-4.2-4.589
			c-85.053-85.071-170.059-170.19-255.32-255.054c-5.169-5.146-6.138-10.238-5.239-16.699c2.06-0.088,2.794,1.581,3.838,2.624
			c90.404,90.354,180.782,180.734,271.15,271.123C279.259,765.53,280.234,766.802,281.279,768.004z"/>
		<path style="fill-rule:evenodd;clip-rule:evenodd;fill:#182D50;" d="M268.86,767.027c0.59,0.162,1.608,0.6,1.708,0.445
			c3.207-4.971,4.118,0.105,5.889,1.313c-19.844-0.011-39.688-0.023-59.531-0.034c-0.555-0.293-1.178-0.257-1.771-0.368
			c-0.592-0.265-0.982-0.685-1.051-1.355c-1.389-1.536-2.715-3.137-4.178-4.6C142.658,695.137,75.442,627.792,7.963,560.712
			c-5.086-5.057-5.667-10.086-4.742-16.353c2.154,0.243,3.053,1.93,4.167,3.136c12.898,13.975,27.287,26.468,40.269,40.333
			c16.718,17.856,34.815,34.304,51.891,51.785c7.253,7.426,14.015,15.381,21.689,22.334c10.321,9.351,20.255,19.094,29.715,29.246
			c17.662,18.954,37.26,35.935,54.972,54.811c7.198,7.672,14.727,14.984,22.636,21.911c11.556-0.891,23.132-0.128,34.694-0.418
			C265.124,767.45,267.063,767.994,268.86,767.027z"/>
		<path style="fill-rule:evenodd;clip-rule:evenodd;fill:#182D50;" d="M214.807,767.877c0.706,0.292,1.413,0.583,2.12,0.874
			c-32.309,0.009-64.618,0.019-96.926,0.028c-0.344-0.169-0.456-0.332-0.338-0.493c0.115-0.157,0.231-0.236,0.351-0.236l0.021-0.127
			c11.549-0.91,23.118-0.13,34.674-0.426c1.868-0.048,3.803,0.497,5.603-0.455c-1.385-1.54-2.703-3.149-4.166-4.611
			c-49.193-49.217-98.327-98.495-147.723-147.509c-4.78-4.741-6.593-9.414-5.169-15.905c2.131,0.228,3.09,2.067,4.351,3.327
			C61.473,656.161,115.31,710.01,169.167,763.838c1.459,1.458,3.102,2.732,4.659,4.092
			C187.485,767.226,201.146,767.319,214.807,767.877z"/>
		<path style="fill-rule:evenodd;clip-rule:evenodd;fill:#182D50;" d="M120.014,768.05c-0.007,0.243-0.011,0.485-0.013,0.729
			c-17.92-0.006-35.84-0.012-53.76-0.017c-0.345-0.165-0.459-0.328-0.342-0.49c0.115-0.159,0.23-0.239,0.35-0.239l0.036-0.122
			c11.419-0.874,22.858-0.136,34.284-0.417c1.702-0.042,3.494,0.539,5.108-0.496c-1.284-1.418-2.51-2.892-3.859-4.242
			c-30.951-30.974-61.78-62.069-93.009-92.76c-5.21-5.119-6.95-10.245-5.574-17.188c2.141,0.198,3.089,2.049,4.344,3.303
			c36.076,36.019,72.114,72.073,108.173,108.107C117.1,765.567,118.589,766.775,120.014,768.05z"/>
		<path style="fill-rule:evenodd;clip-rule:evenodd;fill:#182D50;" d="M66.248,768.033c-0.004,0.243-0.006,0.486-0.007,0.729
			c-17.92-0.006-35.84-0.013-53.761-0.02c0-0.25,0-0.5,0.001-0.751c10.61-1.066,21.25-0.146,31.869-0.498
			c2.506-0.083,5.071,0.575,7.52-0.467c-11.663-11.81-23.322-23.622-34.991-35.426c-2.919-2.953-5.869-5.875-8.804-8.811
			c-5.883-5.884-6.26-7.177-4.665-16.176c1.967,0.231,2.816,1.945,3.988,3.112c18.213,18.146,36.377,36.34,54.574,54.502
			C63.32,765.574,64.819,766.77,66.248,768.033z"/>
		<path style="fill-rule:evenodd;clip-rule:evenodd;fill:#000F2C;" d="M51.87,767.027c-1.055,1.9-2.82,0.826-4.192,0.841
			c-11.731,0.121-23.464,0.102-35.197,0.124c-0.299-0.006-0.599-0.027-0.896-0.062c1.666-1.354,3.648-0.864,5.508-0.872
			C28.685,767.016,40.277,767.031,51.87,767.027z"/>
		<path style="fill-rule:evenodd;clip-rule:evenodd;fill:#000F2C;" d="M105.676,766.998c0.144,0.065,0.36,0.093,0.419,0.203
			c0.442,0.834-0.29,0.7-0.662,0.7c-13.05,0.015-26.101,0.012-39.15,0.011c1.681-1.315,3.661-0.846,5.527-0.854
			C83.099,767.006,94.387,767.012,105.676,766.998z"/>
		<path style="fill-rule:evenodd;clip-rule:evenodd;fill:#000F2C;" d="M160.311,767.042c-1.059,1.882-2.811,0.818-4.183,0.829
			c-12.031,0.094-24.063,0.054-36.094,0.053c1.673-1.326,3.65-0.86,5.514-0.866C137.135,767.022,148.723,767.041,160.311,767.042z"
			/>
		<path style="fill-rule:evenodd;clip-rule:evenodd;fill:#000F2C;" d="M214.807,767.877c-13.661,0.018-27.322,0.036-40.982,0.054
			c1.665-1.355,3.647-0.864,5.508-0.872c11.59-0.043,23.182-0.027,34.772-0.03C214.339,767.311,214.573,767.594,214.807,767.877z"/>
		<path style="fill-rule:evenodd;clip-rule:evenodd;fill:#000F2C;" d="M322.534,767.047c-1.057,1.88-2.806,0.813-4.175,0.824
			c-12.018,0.097-24.037,0.06-36.054,0.062c1.662-1.357,3.642-0.867,5.499-0.873C299.381,767.022,310.957,767.045,322.534,767.047z"
			/>
		<path style="fill-rule:evenodd;clip-rule:evenodd;fill:#000F2C;" d="M377.04,767.872c-13.66,0.022-27.32,0.044-40.98,0.065
			c1.663-1.362,3.646-0.871,5.506-0.879c11.592-0.042,23.184-0.026,34.777-0.029C376.575,767.311,376.808,767.591,377.04,767.872z"
			/>
		<path style="fill-rule:evenodd;clip-rule:evenodd;fill:#000F2C;" d="M268.86,767.027c-1.66,1.371-3.646,0.87-5.505,0.876
			c-11.599,0.039-23.198,0.016-34.796,0.013c1.672-1.343,3.654-0.848,5.514-0.856c11.277-0.054,22.554-0.045,33.831-0.058
			C268.224,767.012,268.542,767.021,268.86,767.027z"/>
		<path style="fill-rule:evenodd;clip-rule:evenodd;fill:#051531;" d="M382.828,4.812c0.934,0.635,1.625,1.005,2.193,1.513
			c0.953,0.852,1.831,1.788,2.736,2.692c124.674,124.674,249.348,249.348,374.021,374.022c4.789,4.79,4.79,4.793,0.082,9.5
			c-123.09,123.09-246.178,246.183-369.278,369.262c-4.85,4.849-3.676,4.896-8.67-0.096
			C296.79,674.601,209.909,587.253,122.439,500.5c-29.975-29.729-59.797-59.615-89.855-89.262c-8.18-8.067-16.1-16.404-24.457-24.28
			c-3.338-3.146-2.917-4.906,0.121-7.938c86.963-86.811,173.837-173.712,260.725-260.599c36.656-36.655,73.31-73.311,109.973-109.96
			C380.165,7.242,381.458,6.097,382.828,4.812z"/>
		<path style="fill-rule:evenodd;clip-rule:evenodd;fill:#000F2C;" d="M493.385,767.893c-11.877,0.011-23.755,0.056-35.632-0.019
			c-1.219-0.007-2.826,0.903-3.711-0.849c11.272,0.004,22.545-0.01,33.817,0.032C489.724,767.065,491.698,766.601,493.385,767.893z"
			/>
		<path style="fill-rule:evenodd;clip-rule:evenodd;fill:#000F2C;" d="M548.099,767.936c-12.025-0.004-24.051,0.032-36.074-0.064
			c-1.372-0.011-3.125,1.055-4.181-0.831c11.585-0.001,23.169-0.021,34.753,0.019C544.455,767.065,546.438,766.575,548.099,767.936z
			"/>
		<path style="fill-rule:evenodd;clip-rule:evenodd;fill:#000F2C;" d="M601.847,767.923c-13.627-0.028-27.255-0.056-40.878-0.085
			c0.503-0.284,1.004-0.567,1.503-0.852c11.286,0.018,22.573,0.016,33.86,0.072C598.193,767.069,600.178,766.572,601.847,767.923z"
			/>
		<path style="fill-rule:evenodd;clip-rule:evenodd;fill:#000F2C;" d="M655.625,767.893c-11.877,0.011-23.755,0.056-35.632-0.019
			c-1.218-0.007-2.825,0.902-3.712-0.849c11.272,0.004,22.545-0.01,33.818,0.032C651.964,767.065,653.938,766.601,655.625,767.893z"
			/>
		<path style="fill-rule:evenodd;clip-rule:evenodd;fill:#000F2C;" d="M764.121,767.918c-13.056-0.002-26.112-0.002-39.169-0.005
			c-0.159,0-0.353,0.037-0.471-0.038c-0.808-0.515-0.126-0.662,0.231-0.886c11.293,0.016,22.587,0.015,33.881,0.068
			C760.461,767.066,762.442,766.596,764.121,767.918z"/>
		<path style="fill-rule:evenodd;clip-rule:evenodd;fill:#061531;" d="M376.192,344.695c0.145,0.302,0.149,0.605,0.011,0.91
			c-3.122,0.754-6.244,0.759-9.366-0.001c-0.137-0.305-0.133-0.607,0.012-0.909C369.963,344.696,373.078,344.696,376.192,344.695z"
			/>
	</g>
</g>
<g id="Layer_3">
	<g>
		<path style="fill:none;stroke:#FFFFFF;stroke-width:2.2001;stroke-miterlimit:10;" d="M263.357,355.453v22.099h27.089v-22.099
			h12.277v59.01h-12.277v-25.901h-27.089v25.901h-12.277v-59.01H263.357z"/>
		<path style="fill:none;stroke:#FFFFFF;stroke-width:2.2001;stroke-miterlimit:10;" d="M321.887,414.463v-59.01h31.366v11.089
			h-19.089v11.01h22.179v11.009h-22.179v14.813h24.317v11.089H321.887z"/>
		<path style="fill:none;stroke:#FFFFFF;stroke-width:2.2001;stroke-miterlimit:10;" d="M387.468,355.453v47.921h23.763v11.089
			h-36.04v-59.01H387.468z"/>
		<path style="fill:none;stroke:#FFFFFF;stroke-width:2.2001;stroke-miterlimit:10;" d="M438.236,355.453v47.921h23.763v11.089
			h-36.04v-59.01H438.236z"/>
		<path style="fill:none;stroke:#FFFFFF;stroke-width:2.2001;stroke-miterlimit:10;" d="M470.391,384.918
			c0-16.871,13.624-30.495,30.495-30.495c16.951,0,30.575,13.624,30.575,30.495c0,16.872-13.624,30.574-30.495,30.574
			C484.015,415.492,470.391,401.79,470.391,384.918z M482.985,384.918c0,10.535,7.842,18.772,17.98,18.772
			c9.979,0,17.9-8.237,17.9-18.772c0-10.376-8-18.772-17.98-18.772C490.827,366.146,482.985,374.542,482.985,384.918z"/>
	</g>
	<g>
		<path style="fill:#FFC933;" d="M340.629,252.57c0,6.126-4.79,11.055-10.749,11.055c-5.931,0-10.666-4.79-10.666-10.721
			c0-5.931,4.734-10.749,10.638-10.749c3.871,0,7.296,2.005,9.162,5.041l-3.453,2.506c-1.086-2.033-3.23-3.425-5.681-3.425
			c-3.481,0-6.238,2.952-6.238,6.627c0,3.648,2.757,6.572,6.238,6.572c2.506,0,4.818-1.281,5.737-3.704h-5.625v-3.843h10.638V252.57
			z"/>
		<path style="fill:#FFC933;" d="M350.771,259.671v3.592h-4.316v-20.746h7.212c4.874,0,8.605,3.648,8.605,8.159
			c0,3.731-1.782,6.46-4.678,7.797l4.483,4.79h-5.737l-3.397-3.592H350.771z M352.553,255.773c3.425,0,5.291-1.671,5.291-4.762
			c0-2.534-1.504-4.595-4.456-4.595h-2.618v9.357H352.553z"/>
		<path style="fill:#FFC933;" d="M367.177,252.876c0-5.931,4.79-10.721,10.721-10.721c5.959,0,10.75,4.79,10.75,10.721
			c0,5.932-4.791,10.749-10.722,10.749C371.967,263.625,367.177,258.808,367.177,252.876z M371.605,252.876
			c0,3.704,2.757,6.6,6.321,6.6c3.509,0,6.294-2.896,6.294-6.6c0-3.648-2.813-6.6-6.322-6.6
			C374.362,246.277,371.605,249.229,371.605,252.876z"/>
		<path style="fill:#FFC933;" d="M394.334,253.656v-11.139h4.316v11.863c0,3.258,1.586,5.096,4.65,5.096
			c3.23,0,4.623-1.977,4.623-5.096v-11.863h4.26v11.501c0,6.042-3.369,9.607-8.883,9.607
			C397.23,263.625,394.334,259.421,394.334,253.656z"/>
		<path style="fill:#FFC933;" d="M418.734,263.264v-20.746h7.072c5.096,0,8.688,4.149,8.688,8.354c0,5.319-3.758,9.245-8.967,9.245
			h-2.477v3.147H418.734z M425.416,256.19c3.008,0,4.65-2.2,4.65-4.873c0-2.423-1.586-4.901-4.398-4.901h-2.617v9.774H425.416z"/>
		<path style="fill:#FFC933;" d="M453.354,263.264l5.682-9.273c-2.896-0.362-5.18-2.869-5.18-5.876c0-3.091,2.59-5.959,5.904-5.959
			c3.258,0,5.932,2.701,5.932,5.959c0,1.197-0.391,2.312-0.975,3.286l-5.014,8.215h6.795v3.648H453.354z M459.73,250.314
			c1.17,0,2.145-0.975,2.145-2.144s-0.975-2.144-2.145-2.144c-1.168,0-2.143,0.975-2.143,2.144S458.563,250.314,459.73,250.314z"/>
	</g>
	<line style="fill:none;stroke:#FFC933;stroke-width:8;stroke-miterlimit:10;" x1="320" y1="276" x2="468" y2="276"/>
	<g>
		<path style="fill:#B9FFEF;" d="M277.857,468.521h-9.034l-1.201,2.502h-4.004l9.834-18.969l9.859,18.969h-4.229L277.857,468.521z
			 M270.5,465.017h5.656l-2.853-5.806L270.5,465.017z"/>
		<path style="fill:#B9FFEF;" d="M302.601,467.795v3.228h-3.878V452.38h6.481c4.379,0,7.733,3.277,7.733,7.332
			c0,3.353-1.602,5.806-4.204,7.007l4.029,4.304h-5.155l-3.053-3.228H302.601z M304.202,464.291c3.078,0,4.755-1.501,4.755-4.279
			c0-2.277-1.352-4.129-4.004-4.129h-2.353v8.408H304.202z"/>
		<path style="fill:#B9FFEF;" d="M321.991,452.38v6.981h8.559v-6.981h3.879v18.643h-3.879v-8.183h-8.559v8.183h-3.878V452.38
			H321.991z"/>
		<path style="fill:#B9FFEF;" d="M353.544,452.38h4.079l-7.657,12.637v6.006h-3.854v-5.655l-7.908-12.987h4.455l5.43,9.158
			L353.544,452.38z"/>
		<path style="fill:#B9FFEF;" d="M364.702,471.022v-15.14h-4.604v-3.503h13.388v3.503h-4.904v15.14H364.702z"/>
		<path style="fill:#B9FFEF;" d="M382.116,452.38v6.981h8.559v-6.981h3.879v18.643h-3.879v-8.183h-8.559v8.183h-3.878V452.38
			H382.116z"/>
		<path style="fill:#B9FFEF;" d="M420.45,452.054v18.969h-3.854v-11.235l-6.057,4.379l-6.056-4.379v11.235h-3.879v-18.969
			l9.935,7.533L420.45,452.054z"/>
		<path style="fill:#B9FFEF;" d="M458.031,461.413c0,5.506-4.305,9.935-9.66,9.935c-5.33,0-9.584-4.304-9.584-9.634
			s4.254-9.66,9.56-9.66c3.479,0,6.557,1.802,8.232,4.53l-3.103,2.252c-0.976-1.827-2.903-3.078-5.105-3.078
			c-3.128,0-5.605,2.652-5.605,5.956c0,3.278,2.478,5.905,5.605,5.905c2.253,0,4.329-1.151,5.155-3.328h-5.055v-3.453h9.56V461.413z
			"/>
		<path style="fill:#B9FFEF;" d="M473.817,468.521h-9.034l-1.201,2.502h-4.004l9.835-18.969l9.859,18.969h-4.229L473.817,468.521z
			 M466.46,465.017h5.655l-2.853-5.806L466.46,465.017z"/>
		<path style="fill:#B9FFEF;" d="M503.243,452.054v18.969h-3.854v-11.235l-6.057,4.379l-6.056-4.379v11.235h-3.879v-18.969
			l9.935,7.533L503.243,452.054z"/>
		<path style="fill:#B9FFEF;" d="M509.319,471.022V452.38h9.91v3.503h-6.031v3.479h7.007v3.479h-7.007v4.68h7.683v3.503H509.319z"/>
	</g>
	<g>
		<path style="fill:#727272;" d="M288.409,565.051v-11.879h4.05c2.918,0,4.975,2.375,4.975,4.783c0,3.047-2.153,5.295-5.134,5.295
			h-1.419v1.801H288.409z M292.236,561.002c1.722,0,2.663-1.26,2.663-2.791c0-1.387-0.909-2.807-2.52-2.807h-1.499v5.598H292.236z"
			/>
		<path style="fill:#727272;" d="M303.11,562.994v2.057h-2.471v-11.879h4.13c2.79,0,4.927,2.09,4.927,4.672
			c0,2.137-1.021,3.699-2.679,4.465l2.567,2.742H306.3l-1.945-2.057H303.11z M304.131,560.762c1.961,0,3.03-0.957,3.03-2.727
			c0-1.451-0.861-2.631-2.551-2.631h-1.499v5.357H304.131z"/>
		<path style="fill:#727272;" d="M312.997,565.051v-11.879h6.314v2.232h-3.843v2.217h4.465v2.217h-4.465v2.98h4.896v2.232H312.997z"
			/>
		<path style="fill:#727272;" d="M323.186,556.393c0-2.01,1.85-3.428,3.492-3.428c1.18,0,2.296,0.445,3.205,1.531l-1.945,1.418
			c-0.319-0.334-0.845-0.59-1.26-0.59c-0.654,0-1.1,0.398-1.1,1.053c0,0.543,0.398,1.037,1.658,1.115
			c2.025,0.129,3.699,1.5,3.699,3.797c0,2.311-1.929,3.969-4.018,3.969c-1.355,0-2.711-0.494-3.843-1.738l2.041-1.498
			c0.542,0.686,1.1,0.861,1.802,0.861c0.813,0,1.451-0.654,1.451-1.42c0-0.957-0.638-1.547-1.786-1.674
			C324.525,559.551,323.186,558.258,323.186,556.393z"/>
		<path style="fill:#727272;" d="M333.471,556.393c0-2.01,1.85-3.428,3.492-3.428c1.18,0,2.296,0.445,3.205,1.531l-1.945,1.418
			c-0.319-0.334-0.845-0.59-1.26-0.59c-0.654,0-1.1,0.398-1.1,1.053c0,0.543,0.398,1.037,1.658,1.115
			c2.025,0.129,3.699,1.5,3.699,3.797c0,2.311-1.929,3.969-4.018,3.969c-1.355,0-2.711-0.494-3.843-1.738l2.041-1.498
			c0.542,0.686,1.1,0.861,1.802,0.861c0.813,0,1.451-0.654,1.451-1.42c0-0.957-0.638-1.547-1.786-1.674
			C334.81,559.551,333.471,558.258,333.471,556.393z"/>
		<path style="fill:#727272;" d="M352.238,556.393c0-2.01,1.85-3.428,3.492-3.428c1.18,0,2.296,0.445,3.205,1.531l-1.945,1.418
			c-0.319-0.334-0.845-0.59-1.26-0.59c-0.653,0-1.101,0.398-1.101,1.053c0,0.543,0.399,1.037,1.658,1.115
			c2.025,0.129,3.7,1.5,3.7,3.797c0,2.311-1.93,3.969-4.019,3.969c-1.355,0-2.711-0.494-3.843-1.738l2.041-1.498
			c0.542,0.686,1.1,0.861,1.802,0.861c0.813,0,1.451-0.654,1.451-1.42c0-0.957-0.638-1.547-1.786-1.674
			C353.578,559.551,352.238,558.258,352.238,556.393z"/>
		<path style="fill:#727272;" d="M363.241,565.051v-11.879h4.051c2.918,0,4.975,2.375,4.975,4.783c0,3.047-2.152,5.295-5.135,5.295
			h-1.419v1.801H363.241z M367.068,561.002c1.722,0,2.663-1.26,2.663-2.791c0-1.387-0.909-2.807-2.52-2.807h-1.499v5.598H367.068z"
			/>
		<path style="fill:#727272;" d="M381.643,563.457h-5.757l-0.765,1.594h-2.552l6.267-12.086l6.282,12.086h-2.694L381.643,563.457z
			 M376.954,561.225h3.604l-1.817-3.699L376.954,561.225z"/>
		<path style="fill:#727272;" d="M398.529,559.805c-0.351,3.047-2.966,5.453-6.123,5.453c-3.396,0-6.107-2.742-6.107-6.139
			s2.711-6.154,6.091-6.154c2.217,0,4.178,1.148,5.246,2.887l-1.929,1.371c-0.861-1.275-2.073-1.898-3.301-1.898
			c-1.993,0-3.572,1.691-3.572,3.795c0,2.09,1.579,3.764,3.572,3.764c1.786,0,3.284-1.291,3.619-3.078H398.529z"/>
		<path style="fill:#727272;" d="M401.893,565.051v-11.879h6.314v2.232h-3.843v2.217h4.465v2.217h-4.465v2.98h4.896v2.232H401.893z"
			/>
		<path style="fill:#727272;" d="M423.037,565.051v-9.646h-2.935v-2.232h8.531v2.232h-3.126v9.646H423.037z"/>
		<path style="fill:#727272;" d="M430.499,559.104c0-3.396,2.743-6.139,6.139-6.139c3.413,0,6.155,2.742,6.155,6.139
			s-2.742,6.154-6.139,6.154C433.242,565.258,430.499,562.5,430.499,559.104z M433.034,559.104c0,2.121,1.579,3.779,3.62,3.779
			c2.009,0,3.604-1.658,3.604-3.779c0-2.088-1.61-3.779-3.62-3.779C434.613,555.324,433.034,557.016,433.034,559.104z"/>
		<path style="fill:#727272;" d="M454.465,565.051v-11.879h4.051c2.918,0,4.975,2.375,4.975,4.783c0,3.047-2.152,5.295-5.135,5.295
			h-1.419v1.801H454.465z M458.292,561.002c1.722,0,2.663-1.26,2.663-2.791c0-1.387-0.909-2.807-2.52-2.807h-1.499v5.598H458.292z"
			/>
		<path style="fill:#727272;" d="M469.167,553.172v9.646h4.784v2.232h-7.256v-11.879H469.167z"/>
		<path style="fill:#727272;" d="M484.762,563.457h-5.757l-0.765,1.594h-2.552l6.267-12.086l6.282,12.086h-2.694L484.762,563.457z
			 M480.073,561.225h3.604l-1.817-3.699L480.073,561.225z"/>
		<path style="fill:#727272;" d="M496.625,553.172h2.6l-4.88,8.053v3.826h-2.455v-3.604l-5.039-8.275h2.838l3.461,5.836
			L496.625,553.172z"/>
	</g>
	<g>
	</g>
	<g>
	</g>
	<g>
	</g>
	<g>
	</g>
	<g>
	</g>
	<g>
	</g>
	<g>
	</g>
	<g>
	</g>
	<g>
	</g>
	<g>
	</g>
	<g>
	</g>
	<g>
	</g>
	<g>
	</g>
	<g>
	</g>
	<g>
	</g>
</g>
</svg>
